<svg xmlns="http://www.w3.org/2000/svg" viewBox="-40 -40 320 320"><defs><linearGradient id="pearlGrad" x1="0" y1="0" x2="1" y2="1"><stop offset="0%" stop-color="#f7e9f2"/><stop offset="50%" stop-color="#e6f2f7"/><stop offset="100%" stop-color="#fff7e6"/></linearGradient></defs><circle cx="120" cy="120" r="90" fill="none" stroke="url(#pearlGrad)" stroke-width="28" stroke-linecap="round" stroke-dasharray="14.6 9.0" opacity="1" /><circle cx="210.0" cy="120.0" r="4.6" fill="#fffdf9" stroke="#d9b8cf" stroke-width="1.4"/><circle cx="206.93332436601617" cy="143.29371405922686" r="4.6" fill="#fffdf9" stroke="#d9b8cf" stroke-width="1.4"/><circle cx="197.94228634059948" cy="165.0" r="4.6" fill="#fffdf9" stroke="#d9b8cf" stroke-width="1.4"/><circle cx="183.63961030678928" cy="183.63961030678928" r="4.6" fill="#fffdf9" stroke="#d9b8cf" stroke-width="1.4"/><circle cx="165.0" cy="197.94228634059948" r="4.6" fill="#fffdf9" stroke="#d9b8cf" stroke-width="1.4"/><circle cx="143.29371405922686" cy="206.93332436601617" r="4.6" fill="#fffdf9" stroke="#d9b8cf" stroke-width="1.4"/><circle cx="120.0" cy="210.0" r="4.6" fill="#fffdf9" stroke="#d9b8cf" stroke-width="1.4"/><circle cx="96.70628594077313" cy="206.93332436601617" r="4.6" fill="#fffdf9" stroke="#d9b8cf" stroke-width="1.4"/><circle cx="75.00000000000003" cy="197.94228634059948" r="4.6" fill="#fffdf9" stroke="#d9b8cf" stroke-width="1.4"/><circle cx="56.36038969321073" cy="183.63961030678928" r="4.6" fill="#fffdf9" stroke="#d9b8cf" stroke-width="1.4"/><circle cx="42.05771365940052" cy="165.0" r="4.6" fill="#fffdf9" stroke="#d9b8cf" stroke-width="1.4"/><circle cx="33.06667563398386" cy="143.2937140592269" r="4.6" fill="#fffdf9" stroke="#d9b8cf" stroke-width="1.4"/><circle cx="30.0" cy="120.00000000000001" r="4.6" fill="#fffdf9" stroke="#d9b8cf" stroke-width="1.4"/><circle cx="33.06667563398385" cy="96.70628594077313" r="4.6" fill="#fffdf9" stroke="#d9b8cf" stroke-width="1.4"/><circle cx="42.05771365940052" cy="75.0" r="4.6" fill="#fffdf9" stroke="#d9b8cf" stroke-width="1.4"/><circle cx="56.360389693210706" cy="56.36038969321073" r="4.6" fill="#fffdf9" stroke="#d9b8cf" stroke-width="1.4"/><circle cx="74.99999999999996" cy="42.05771365940055" r="4.6" fill="#fffdf9" stroke="#d9b8cf" stroke-width="1.4"/><circle cx="96.70628594077314" cy="33.06667563398385" r="4.6" fill="#fffdf9" stroke="#d9b8cf" stroke-width="1.4"/><circle cx="119.99999999999999" cy="30.0" r="4.6" fill="#fffdf9" stroke="#d9b8cf" stroke-width="1.4"/><circle cx="143.29371405922683" cy="33.06667563398385" r="4.6" fill="#fffdf9" stroke="#d9b8cf" stroke-width="1.4"/><circle cx="165.0" cy="42.05771365940052" r="4.6" fill="#fffdf9" stroke="#d9b8cf" stroke-width="1.4"/><circle cx="183.63961030678925" cy="56.360389693210706" r="4.6" fill="#fffdf9" stroke="#d9b8cf" stroke-width="1.4"/><circle cx="197.94228634059945" cy="74.99999999999996" r="4.6" fill="#fffdf9" stroke="#d9b8cf" stroke-width="1.4"/><circle cx="206.93332436601617" cy="96.70628594077314" r="4.6" fill="#fffdf9" stroke="#d9b8cf" stroke-width="1.4"/><g transform="rotate(-10 176 32)"><path d="M 176 32 L 137.0 5.0 C 125.0 23.0 125.0 41.0 137.0 59.0 Z" fill="#f6bcd6" stroke="#e59cba" stroke-width="3" stroke-linejoin="round"/><path d="M 176 32 L 215.0 5.0 C 227.0 23.0 227.0 41.0 215.0 59.0 Z" fill="#f6bcd6" stroke="#e59cba" stroke-width="3" stroke-linejoin="round"/><circle cx="176" cy="32" r="12.6" fill="#f6bcd6" stroke="#e59cba" stroke-width="3"/></g></svg>